<?xml version="1.0" encoding="utf-8"?>
<!-- Generator: Adobe Illustrator 18.1.1, SVG Export Plug-In . SVG Version: 6.00 Build 0)  -->
<svg version="1.1" xmlns="http://www.w3.org/2000/svg" xmlns:xlink="http://www.w3.org/1999/xlink" x="0px" y="0px"
	 viewBox="0 0 52 52" enable-background="new 0 0 52 52" xml:space="preserve">
<g id="bounds_1_">
	<rect id="bounds" fill-rule="evenodd" clip-rule="evenodd" fill="none" width="52" height="52"/>
</g>
<g id="list_obj">
	<path id="light_probe" fill-rule="evenodd" clip-rule="evenodd" fill="#C2C5CC" d="M26,4C13.8,4,4,13.8,4,26s9.8,22,22,22
		s22-9.8,22-22S38.2,4,26,4z M30.2,38.5c0,1.4-1.4,2.8-4.2,2.8s-4.2-1.4-4.2-2.8v-2.8h8.4C30.2,35.8,30.2,37.8,30.2,38.5z M30.2,33
		v1.4h-8.4V33c0-4.2-5.6-8.4-5.6-13.9s4.2-8.4,9.8-8.4s9.8,2.8,9.8,8.4S30.2,28.8,30.2,33z"/>
</g>
</svg>
