<?xml version="1.0" encoding="utf-8"?>
<!-- Generator: Adobe Illustrator 17.1.0, SVG Export Plug-In . SVG Version: 6.00 Build 0)  -->
<!DOCTYPE svg PUBLIC "-//W3C//DTD SVG 1.1//EN" "http://www.w3.org/Graphics/SVG/1.1/DTD/svg11.dtd">
<svg version="1.1" id="Layer_1" xmlns="http://www.w3.org/2000/svg" xmlns:xlink="http://www.w3.org/1999/xlink" x="0px" y="0px"
	 viewBox="0 0 64 64" enable-background="new 0 0 64 64" xml:space="preserve">
<g id="sun_direction" display="none">
	<path display="inline" fill-rule="evenodd" clip-rule="evenodd" fill="#C2C5CC" d="M46.9,25.1h-2.3c-0.6,0-1.1-0.5-1.1-1.1
		c0-0.6,0.5-1.1,1.1-1.1h2.3c0.6,0,1.1,0.5,1.1,1.1C48,24.6,47.5,25.1,46.9,25.1z M45.4,17.6l-2,1.1c-0.5,0.3-1.2,0.1-1.6-0.4
		c-0.3-0.5-0.1-1.2,0.4-1.6l2-1.1c0.5-0.3,1.2-0.1,1.6,0.4C46.2,16.5,46,17.2,45.4,17.6z M32,33.1c-5,0-9.1-4.1-9.1-9.1
		c0-5,4.1-9.1,9.1-9.1s9.1,4.1,9.1,9.1C41.1,29,37,33.1,32,33.1z M39.3,13.7c-0.3,0.5-1,0.7-1.6,0.4s-0.7-1-0.4-1.6l1.1-2
		c0.3-0.5,1-0.7,1.6-0.4c0.5,0.3,0.7,1,0.4,1.6L39.3,13.7z M32,12.6c-0.6,0-1.1-0.5-1.1-1.1V9.1C30.9,8.5,31.4,8,32,8
		s1.1,0.5,1.1,1.1v2.3C33.1,12.1,32.6,12.6,32,12.6z M26.3,14.1c-0.5,0.3-1.2,0.1-1.6-0.4l-1.1-2c-0.3-0.5-0.1-1.2,0.4-1.6
		c0.5-0.3,1.2-0.1,1.6,0.4l1.1,2C27,13.1,26.8,13.8,26.3,14.1z M21.7,31.3l-2,1.1c-0.5,0.3-1.2,0.1-1.6-0.4
		c-0.3-0.5-0.1-1.2,0.4-1.6l2-1.1c0.5-0.3,1.2-0.1,1.6,0.4C22.4,30.3,22.2,31,21.7,31.3z M20.5,18.7l-2-1.1c-0.5-0.3-0.7-1-0.4-1.6
		c0.3-0.5,1-0.7,1.6-0.4l2,1.1c0.5,0.3,0.7,1,0.4,1.6C21.8,18.8,21.1,19,20.5,18.7z M20.6,24c0,0.6-0.5,1.1-1.1,1.1h-2.3
		c-0.6,0-1.1-0.5-1.1-1.1c0-0.6,0.5-1.1,1.1-1.1h2.3C20.1,22.9,20.6,23.4,20.6,24z M24.7,34.3c0.3-0.5,1-0.7,1.6-0.4
		c0.5,0.3,0.7,1,0.4,1.6l-1.1,2c-0.3,0.5-1,0.7-1.6,0.4c-0.5-0.3-0.7-1-0.4-1.6L24.7,34.3z M32,35.4c0.6,0,1.1,0.5,1.1,1.1v2.3
		c0,0.6-0.5,1.1-1.1,1.1s-1.1-0.5-1.1-1.1v-2.3C30.9,35.9,31.4,35.4,32,35.4z M37.7,33.9c0.5-0.3,1.2-0.1,1.6,0.4l1.1,2
		c0.3,0.5,0.1,1.2-0.4,1.6c-0.5,0.3-1.2,0.1-1.6-0.4l-1.1-2C37,34.9,37.2,34.2,37.7,33.9z M43.5,29.3l2,1.1c0.5,0.3,0.7,1,0.4,1.6
		c-0.3,0.5-1,0.7-1.6,0.4l-2-1.1c-0.5-0.3-0.7-1-0.4-1.6C42.2,29.2,42.9,29,43.5,29.3z"/>
	<path display="inline" fill-rule="evenodd" clip-rule="evenodd" fill="#C2C5CC" d="M27,42h10v5h4l-9,9l-9-9h4V42z"/>
</g>
<g id="volume">
	<path fill-rule="evenodd" clip-rule="evenodd" fill="#C2C5CC" d="M50.5,42l-18,10l-19-10l0,0V22l0,0l19-10l18,10l0,0V42L50.5,42z
		 M47.5,42l-14-7.5v14.9L47.5,42z M31.5,49.5V34.5l-15,7.5L31.5,49.5z M15.5,40.9l16-8.4v-1.1l-16-8.4V40.9z M31.5,29.5V14.5
		l-15,7.5L31.5,29.5z M33.5,14.5v14.9l14-7.5L33.5,14.5z M33.5,31.4v1.1l15,8.3V23.1L33.5,31.4z"/>
	<path fill-rule="evenodd" clip-rule="evenodd" fill="#C2C5CC" d="M49.5,25c-1.7,0-3-1.3-3-3c0-1.7,1.3-3,3-3s3,1.3,3,3
		C52.5,23.7,51.2,25,49.5,25z M32.5,54c-1.7,0-3-1.3-3-3s1.3-3,3-3c1.7,0,3,1.3,3,3S34.2,54,32.5,54z M32.5,34c-1.7,0-3-1.3-3-3
		c0-1.7,1.3-3,3-3c1.7,0,3,1.3,3,3C35.5,32.7,34.2,34,32.5,34z M32.5,16c-1.7,0-3-1.3-3-3s1.3-3,3-3c1.7,0,3,1.3,3,3
		S34.2,16,32.5,16z M14.5,45c-1.7,0-3-1.3-3-3c0-1.7,1.3-3,3-3s3,1.3,3,3C17.5,43.7,16.2,45,14.5,45z M14.5,25c-1.7,0-3-1.3-3-3
		c0-1.7,1.3-3,3-3s3,1.3,3,3C17.5,23.7,16.2,25,14.5,25z M49.5,39c1.7,0,3,1.3,3,3c0,1.7-1.3,3-3,3s-3-1.3-3-3
		C46.5,40.3,47.8,39,49.5,39z"/>
</g>
<path id="trigger" display="none" fill-rule="evenodd" clip-rule="evenodd" fill="#C2C5CC" d="M16,54V40c0-2.2,1.8-4,4-4h7v10h10V36
	h7c2.2,0,4,1.8,4,4v14H16z M35,25.4V38c0,0-1,2-3,2s-3-2-3-2V25.4c-2.9-1.2-5-4.1-5-7.4c0-4.4,3.6-8,8-8s8,3.6,8,8
	C40,21.4,37.9,24.2,35,25.4z"/>
<path id="marker" display="none" fill-rule="evenodd" clip-rule="evenodd" fill="#C2C5CC" d="M32,8c-8,0-16,8-16,16s16,32,16,32
	s16-24,16-32S40,8,32,8z M32,34c-5.5,0-10-4.5-10-10s4.5-10,10-10s10,4.5,10,10S37.5,34,32,34z"/>
<path id="spawn_point" display="none" fill-rule="evenodd" clip-rule="evenodd" fill="#C2C5CC" d="M33,24h-1l14-7L32,40L33,24z
	 M32,40L18,17l14,7h-1L32,40z M18,15l14-7l14,7l-14,7L18,15z M46,49l-14,7l-14-7l14-7L46,49z M32,53l8-4l-8-4l-8,4L32,53z"/>
<path id="seed_point" display="none" fill-rule="evenodd" clip-rule="evenodd" fill="#C2C5CC" d="M32.9,39V23L46,16.5v15L32.9,39z
	 M36.1,31.4c-1,0.5-1.8,1.9-1.8,3.1c0,1.2,0.8,1.7,1.8,1.1c1-0.6,1.8-1.9,1.8-3.1C37.9,31.3,37.1,30.8,36.1,31.4z M43.1,19.4
	c-0.9,0.5-1.7,1.8-1.7,2.9s0.8,1.6,1.7,1.1c0.9-0.5,1.7-1.8,1.7-2.9C44.8,19.5,44,19,43.1,19.4z M18,14.6L32,8l14,6.6l-14,6.6
	L18,14.6z M33.9,13.7c-1-0.5-2.7-0.5-3.7,0c-1,0.5-1,1.3,0,1.8c1,0.5,2.7,0.5,3.7,0C34.9,15,34.9,14.2,33.9,13.7z M31.1,39L18,31.5
	v-15L31.1,23V39z M20.9,19.4c-0.9-0.5-1.7,0-1.7,1.2c0,1.1,0.7,2.4,1.7,2.9c0.9,0.5,1.7,0,1.7-1.1S21.8,19.9,20.9,19.4z M24.3,25.3
	c-1-0.5-1.7,0-1.7,1.1c0,1.1,0.8,2.5,1.7,3c1,0.5,1.8,0,1.8-1.1C26.1,27.2,25.3,25.8,24.3,25.3z M27.9,31.4c-1-0.5-1.8,0-1.8,1.1
	c0,1.1,0.8,2.5,1.8,3.1c1,0.6,1.8,0.1,1.8-1.1C29.7,33.3,28.9,31.9,27.9,31.4z M46,49l-14,7l-14-7l14-7L46,49z M32,53l8-4l-8-4l-8,4
	L32,53z"/>
<g id="navworld" display="none">
	<path display="inline" fill-rule="evenodd" clip-rule="evenodd" fill="#C2C5CC" d="M32,54c-12.1,0-22-9.8-22-22s9.8-22,22-22
		s22,9.8,22,22S44.1,54,32,54z M32,15c-9.4,0-17,7.6-17,17s7.6,17,17,17s17-7.6,17-17S41.4,15,32,15z"/>
	<path display="inline" fill-rule="evenodd" clip-rule="evenodd" fill="#C2C5CC" d="M45,32l4-2v4L45,32z M32,45l2,4h-4L32,45z
		 M30,15h4l-2,4L30,15z M15,30l4,2l-4,2V30z"/>
	<path display="inline" fill-rule="evenodd" clip-rule="evenodd" fill="#C2C5CC" d="M35,35l-12,6l6-12l12-6L35,35z M32,30
		c-1.1,0-2,0.9-2,2s0.9,2,2,2c1.1,0,2-0.9,2-2S33.1,30,32,30z"/>
</g>
<path id="graph_connect_simple" display="none" fill-rule="evenodd" clip-rule="evenodd" fill="#C2C5CC" d="M30,54V30h24v24H30z
	 M42,23h3c0,0,0-2,0-4s-3-3-3-3c-1.3,0-6,0-6,0v-2c0,0,6,0,7,0c2,0,4,2,4,4v5h3l-4,5L42,23z M28,34H10V10h24v18h-6V34z M19.2,47.5
	c-0.3-0.2-0.6-0.4-1.1-0.6c-0.4-0.2-0.8-0.4-1.3-0.6c-1.2-0.5-2.1-1.1-2.7-1.8c-0.6-0.7-0.9-1.6-0.9-2.6c0-0.8,0.2-1.5,0.5-2.1
	c0.3-0.6,0.8-1.1,1.3-1.4c0.6-0.4,1.2-0.6,1.9-0.8c0.7-0.2,1.5-0.3,2.3-0.3c0.8,0,1.5,0,2.1,0.1c0.6,0.1,1.2,0.2,1.7,0.4v3.2
	c-0.3-0.2-0.5-0.3-0.8-0.5c-0.3-0.1-0.6-0.2-0.9-0.3c-0.3-0.1-0.6-0.2-1-0.2c-0.3,0-0.6-0.1-0.9-0.1c-0.4,0-0.8,0-1.1,0.1
	c-0.3,0.1-0.6,0.2-0.8,0.3c-0.2,0.1-0.4,0.3-0.5,0.5c-0.1,0.2-0.2,0.4-0.2,0.6c0,0.3,0.1,0.5,0.2,0.7c0.1,0.2,0.3,0.4,0.6,0.6
	c0.3,0.2,0.6,0.4,0.9,0.5c0.4,0.2,0.8,0.4,1.2,0.5c0.6,0.3,1.2,0.5,1.7,0.8c0.5,0.3,0.9,0.6,1.3,1c0.4,0.4,0.6,0.8,0.8,1.3
	c0.2,0.5,0.3,1,0.3,1.6c0,0.9-0.2,1.6-0.5,2.2c-0.3,0.6-0.8,1.1-1.3,1.4c-0.6,0.4-1.2,0.6-1.9,0.8c-0.7,0.2-1.5,0.2-2.3,0.2
	c-0.8,0-1.6-0.1-2.4-0.2c-0.8-0.1-1.4-0.4-2-0.6V49c0.6,0.5,1.3,0.9,2,1.2c0.7,0.3,1.5,0.4,2.2,0.4c0.4,0,0.8,0,1.1-0.1
	c0.3-0.1,0.6-0.2,0.8-0.3c0.2-0.1,0.4-0.3,0.5-0.5c0.1-0.2,0.2-0.4,0.2-0.6c0-0.3-0.1-0.6-0.3-0.8C19.8,47.9,19.5,47.7,19.2,47.5z"
	/>
<path id="graph_connect" display="none" fill-rule="evenodd" clip-rule="evenodd" fill="#C2C5CC" d="M30,54V30h24v24H30z M42,23h3
	c0,0,0-2,0-4s-3-3-3-3c-1.3,0-6,0-6,0v-2c0,0,6,0,7,0c2,0,4,2,4,4v5h3l-4,5L42,23z M28,34H10V10h24v18h-6V34z"/>
<path id="bot_target" display="none" fill-rule="evenodd" clip-rule="evenodd" fill="#C2C5CC" d="M46,34H18c-2.2,0-4-1.8-4-4V18
	c0-2.2,1.8-4,4-4h10c0-2.2,1.8-4,4-4s4,1.8,4,4h10c2.2,0,4,1.8,4,4v12C50,32.2,48.2,34,46,34z M23,20c-2.2,0-4,1.8-4,4s1.8,4,4,4
	s4-1.8,4-4S25.2,20,23,20z M41,20c-2.2,0-4,1.8-4,4s1.8,4,4,4s4-1.8,4-4S43.2,20,41,20z M24,36h16c0.6,0,1,0.4,1,1v10
	c0,0.6-0.4,1-1,1H24c-0.6,0-1-0.4-1-1V37C23,36.4,23.4,36,24,36z M27,50c2.2,0,4,1.8,4,4h-8C23,51.8,24.8,50,27,50z M37,50
	c2.2,0,4,1.8,4,4h-8C33,51.8,34.8,50,37,50z"/>
<path id="prototype" display="none" fill-rule="evenodd" clip-rule="evenodd" fill="#C2C5CC" d="M42.5,40l-33-29l47,23L42.5,40z
	 M22.5,53l-13-42l29,31L22.5,53z M39.5,46l1-4l-4-5l6,5l-2,7l-4-4l2-1L39.5,46z"/>
<path id="cubemap" display="none" fill-rule="evenodd" clip-rule="evenodd" fill="#C2C5CC" d="M32,10c-12.1,0-22,9.8-22,22
	s9.8,22,22,22s22-9.8,22-22S44.1,10,32,10z M44.7,44.7L32,32L19.3,44.7C16,41.5,14,37,14,32s2-9.5,5.3-12.7L32,32l12.7-12.7
	C48,22.5,50,27,50,32S48,41.5,44.7,44.7z"/>
<path id="spline" display="none" fill-rule="evenodd" clip-rule="evenodd" fill="#C2C5CC" d="M24,24c0-4,18-4,21-5c3-1,3-9-2-9
	c-3,0-30,2-30,14s27,12,27,16c0,4-18,4-21,5c-3,1-3,9,2,9c3,0,30-2,30-14C51,28,24,28,24,24z M42,12c1.7,0,3,1.3,3,3
	c0,1.7-1.3,3-3,3s-3-1.3-3-3C39,13.3,40.3,12,42,12z M19,27c-1.7,0-3-1.3-3-3s1.3-3,3-3c1.7,0,3,1.3,3,3S20.7,27,19,27z M22,52
	c-1.7,0-3-1.3-3-3s1.3-3,3-3s3,1.3,3,3S23.7,52,22,52z M45,43c-1.7,0-3-1.3-3-3c0-1.7,1.3-3,3-3c1.7,0,3,1.3,3,3
	C48,41.7,46.7,43,45,43z"/>
</svg>
