<?xml version="1.0" encoding="utf-8"?>
<!-- Generator: Adobe Illustrator 18.1.1, SVG Export Plug-In . SVG Version: 6.00 Build 0)  -->
<svg version="1.1" id="Layer_1" xmlns="http://www.w3.org/2000/svg" xmlns:xlink="http://www.w3.org/1999/xlink" x="0px" y="0px"
	 viewBox="0 0 52 52" enable-background="new 0 0 52 52" xml:space="preserve">
<rect id="bounds" fill-rule="evenodd" clip-rule="evenodd" fill="none" width="52" height="52"/>
<path id="reflection" fill-rule="evenodd" clip-rule="evenodd" fill="#C2C5CC" d="M26,48C13.8,48,4,38.2,4,26S13.8,4,26,4
	s22,9.8,22,22S38.2,48,26,48z M39.8,14.4C36.5,10.5,31.5,8,26,8s-10.5,2.5-13.8,6.4C13.4,21,19.1,26,26,26c-6.9,0-12.6,5-13.8,11.6
	C15.5,41.5,20.5,44,26,44s10.5-2.5,13.8-6.4C38.6,31,32.9,26,26,26C32.9,26,38.6,21,39.8,14.4z"/>
</svg>
