<?xml version="1.0" encoding="utf-8"?>
<!-- Generator: Adobe Illustrator 18.1.1, SVG Export Plug-In . SVG Version: 6.00 Build 0)  -->
<svg version="1.1" id="Layer_1" xmlns="http://www.w3.org/2000/svg" xmlns:xlink="http://www.w3.org/1999/xlink" x="0px" y="0px"
	 viewBox="0 0 52 52" enable-background="new 0 0 52 52" xml:space="preserve">
<rect id="bounds" fill-rule="evenodd" clip-rule="evenodd" fill="none" width="52" height="52"/>
<path id="bot_target" fill-rule="evenodd" clip-rule="evenodd" fill="#C2C5CC" d="M40,28H12c-2.2,0-4-1.8-4-4V12c0-2.2,1.8-4,4-4h10
	c0-2.2,1.8-4,4-4s4,1.8,4,4h10c2.2,0,4,1.8,4,4v12C44,26.2,42.2,28,40,28z M17,14c-2.2,0-4,1.8-4,4s1.8,4,4,4s4-1.8,4-4
	S19.2,14,17,14z M35,14c-2.2,0-4,1.8-4,4s1.8,4,4,4s4-1.8,4-4S37.2,14,35,14z M18,30h16c0.6,0,1,0.4,1,1v10c0,0.6-0.4,1-1,1H18
	c-0.6,0-1-0.4-1-1V31C17,30.4,17.4,30,18,30z M21,44c2.2,0,4,1.8,4,4h-8C17,45.8,18.8,44,21,44z M31,44c2.2,0,4,1.8,4,4h-8
	C27,45.8,28.8,44,31,44z"/>
</svg>
