<?xml version="1.0" encoding="utf-8"?>
<!-- Generator: Adobe Illustrator 18.1.1, SVG Export Plug-In . SVG Version: 6.00 Build 0)  -->
<svg version="1.1" id="Layer_1" xmlns="http://www.w3.org/2000/svg" xmlns:xlink="http://www.w3.org/1999/xlink" x="0px" y="0px"
	 viewBox="0 0 500 500" enable-background="new 0 0 500 500" xml:space="preserve">
<line fill="none" stroke="#423F3B" stroke-width="12" stroke-miterlimit="10" x1="250" y1="383" x2="250" y2="467"/>
<path fill="#DA9355" stroke="#423F3B" stroke-width="12" stroke-miterlimit="10" d="M448.2,140.5C448.2,84.4,359.5,39,250,39
	S51.8,84.4,51.8,140.5v225C51.8,421.6,140.5,467,250,467s198.2-45.4,198.2-101.5V140.5z"/>
<ellipse fill="#DA9355" stroke="#423F3B" stroke-width="12" stroke-miterlimit="10" cx="250" cy="140.5" rx="96.7" ry="49.5"/>
<path fill="none" stroke="#423F3B" stroke-width="12" stroke-miterlimit="10" d="M448.2,140.5c0,56.1-88.7,101.5-198.2,101.5
	S51.8,196.6,51.8,140.5"/>
<path fill="none" stroke="#423F3B" stroke-width="12" stroke-miterlimit="10" d="M448.2,254c0,56.1-88.7,101.5-198.2,101.5
	S51.8,310.1,51.8,254"/>
<polyline fill="none" stroke="#423F3B" stroke-width="12" stroke-miterlimit="10" points="157,451 157,230.2 333.6,48.5 "/>
<polyline fill="none" stroke="#423F3B" stroke-width="12" stroke-miterlimit="10" points="354,451 354,230.2 153.3,51.9 "/>
<line fill="none" stroke="#423F3B" stroke-width="12" stroke-miterlimit="10" x1="52.7" y1="130.9" x2="447.3" y2="137.9"/>
</svg>
