<?xml version="1.0" encoding="utf-8"?>
<!-- Generator: Adobe Illustrator 18.1.1, SVG Export Plug-In . SVG Version: 6.00 Build 0)  -->
<svg version="1.1" id="Layer_1" xmlns="http://www.w3.org/2000/svg" xmlns:xlink="http://www.w3.org/1999/xlink" x="0px" y="0px"
	 viewBox="0 0 500 500" enable-background="new 0 0 500 500" xml:space="preserve">
<circle fill="#DA9355" stroke="#423F3B" stroke-width="12" stroke-miterlimit="10" cx="250" cy="262.6" r="198.2"/>
<path fill="none" stroke="#423F3B" stroke-width="12" stroke-miterlimit="10" d="M341.6,437.8c25.9-37.5,41.2-82.9,41.2-131.9
	c0-117.5-87.4-214.6-200.7-229.9"/>
<path fill="none" stroke="#423F3B" stroke-width="12" stroke-miterlimit="10" d="M-82.9,305.9"/>
<path fill="none" stroke="#423F3B" stroke-width="12" stroke-miterlimit="10" d="M316.7,75.6C202.1,89.8,113.5,187.5,113.5,305.9
	c0,47.7,14.4,92,39.1,128.9"/>
<path fill="none" stroke="#423F3B" stroke-width="12" stroke-miterlimit="10" d="M66.3,336.5c19.2,32.5,82.2,81,183.7,81
	s162.5-46.5,183.7-81"/>
<path fill="none" stroke="#423F3B" stroke-width="12" stroke-miterlimit="10" d="M57.1,229.3c20.2,35.1,86.6,86.4,193.5,86.4
	s171.2-49.1,193.5-86.4"/>
<path fill="none" stroke="#423F3B" stroke-width="12" stroke-miterlimit="10" d="M106.4,127.5c15,25.4,64.3,66.2,143.6,66.2
	s127-39.2,143.6-66.2"/>
</svg>
