<?xml version="1.0" encoding="utf-8"?>
<!-- Generator: Adobe Illustrator 18.1.1, SVG Export Plug-In . SVG Version: 6.00 Build 0)  -->
<svg version="1.1" id="Layer_1" xmlns="http://www.w3.org/2000/svg" xmlns:xlink="http://www.w3.org/1999/xlink" x="0px" y="0px"
	 viewBox="0 0 52 52" enable-background="new 0 0 52 52" xml:space="preserve">
<rect id="bounds" fill-rule="evenodd" clip-rule="evenodd" fill="none" width="52" height="52"/>
<path id="spline" fill-rule="evenodd" clip-rule="evenodd" fill="#C2C5CC" d="M18,18c0-4,18-4,21-5c3-1,3-9-2-9C34,4,7,6,7,18
	s27,12,27,16c0,4-18,4-21,5c-3,1-3,9,2,9c3,0,30-2,30-14C45,22,18,22,18,18z M36,6c1.7,0,3,1.3,3,3c0,1.7-1.3,3-3,3s-3-1.3-3-3
	C33,7.3,34.3,6,36,6z M13,21c-1.7,0-3-1.3-3-3s1.3-3,3-3c1.7,0,3,1.3,3,3S14.7,21,13,21z M16,46c-1.7,0-3-1.3-3-3s1.3-3,3-3
	s3,1.3,3,3S17.7,46,16,46z M39,37c-1.7,0-3-1.3-3-3c0-1.7,1.3-3,3-3c1.7,0,3,1.3,3,3C42,35.7,40.7,37,39,37z"/>
</svg>
