<?xml version="1.0" encoding="utf-8"?>
<!-- Generator: Adobe Illustrator 18.1.1, SVG Export Plug-In . SVG Version: 6.00 Build 0)  -->
<svg version="1.1" xmlns="http://www.w3.org/2000/svg" xmlns:xlink="http://www.w3.org/1999/xlink" x="0px" y="0px"
	 viewBox="0 0 52 52" enable-background="new 0 0 52 52" xml:space="preserve">
<g id="bounds_1_">
	<rect id="bounds" fill-rule="evenodd" clip-rule="evenodd" fill="none" width="52" height="52"/>
</g>
<g id="list_obj">
	<g id="spot_light">
		<path fill-rule="evenodd" clip-rule="evenodd" fill="#C2C5CC" d="M11.627,11.627c-4.686,4.686-7.536,9.435-6.364,10.607
			l12.728,12.728c1.172,1.172,5.92-1.678,10.607-6.364s7.536-9.435,6.364-10.607L22.234,5.263
			C21.062,4.092,16.313,6.941,11.627,11.627z M27.802,27.802c-4.306,4.306-7.57,5.688-7.955,5.303
			c-0.385-0.385,0.997-3.649,5.303-7.955s7.57-5.688,7.955-5.303C33.49,20.232,32.108,23.496,27.802,27.802z"/>
		<polygon fill-rule="evenodd" clip-rule="evenodd" fill="#5DB8E6" points="42.464,38.222 32.565,28.322 28.322,32.565 
			38.222,42.464 34.686,46 46,46 46,34.686 		"/>
	</g>
</g>
</svg>
