<?xml version="1.0" encoding="utf-8"?>
<!-- Generator: Adobe Illustrator 18.1.1, SVG Export Plug-In . SVG Version: 6.00 Build 0)  -->
<svg version="1.1" xmlns="http://www.w3.org/2000/svg" xmlns:xlink="http://www.w3.org/1999/xlink" x="0px" y="0px"
	 viewBox="0 0 52 52" enable-background="new 0 0 52 52" xml:space="preserve">
<g id="bounds_1_">
	<rect id="bounds" fill-rule="evenodd" clip-rule="evenodd" fill="none" width="52" height="52"/>
</g>
<g id="list_obj">
	<g id="terrain">
		<path fill-rule="evenodd" clip-rule="evenodd" fill="#C2C5CC" d="M14.404,29.419c6.156,0,10.221,2.754,14.524,5.669
			c3.235,2.191,6.579,4.458,11.353,6.049l9.339,3.113L38.719,22.449l-8.576-3.439l-4.757,3.171l-1.623,1.082l-1.379-1.379
			l-2.826-2.826l-5.553,1.939l-4.871,9.742C10.692,29.92,12.44,29.419,14.404,29.419z"/>
		<path fill-rule="evenodd" clip-rule="evenodd" fill="#C2C5CC" d="M20.202,16.337l3.865,3.865l5.798-3.865l7.248,2.899
			l-5.315-10.63c0,0-1.933-3.865-5.798-3.865s-5.798,3.865-5.798,3.865l-4.638,9.277L20.202,16.337z"/>
		<path fill-rule="evenodd" clip-rule="evenodd" fill="#5DB8E6" d="M0.875,47.26c0,0,3.865-15.462,13.529-15.462
			s13.529,7.731,25.125,11.596s11.596,3.865,11.596,3.865H0.875z"/>
	</g>
</g>
</svg>
