<?xml version="1.0" encoding="utf-8"?>
<!-- Generator: Adobe Illustrator 18.1.1, SVG Export Plug-In . SVG Version: 6.00 Build 0)  -->
<svg version="1.1" id="Layer_1" xmlns="http://www.w3.org/2000/svg" xmlns:xlink="http://www.w3.org/1999/xlink" x="0px" y="0px"
	 viewBox="0 0 52 52" enable-background="new 0 0 52 52" xml:space="preserve">
<rect id="bounds" fill-rule="evenodd" clip-rule="evenodd" fill="none" width="52" height="52"/>
<g id="trigger_1_">
	<path id="trigger" fill-rule="evenodd" clip-rule="evenodd" fill="#C2C5CC" d="M10,48V34c0-2.2,1.8-4,4-4h7v10h10V30h7
		c2.2,0,4,1.8,4,4v14H10z"/>
	<path fill-rule="evenodd" clip-rule="evenodd" fill="#5DB8E6" d="M29,19.4V32c0,0-1,2-3,2s-3-2-3-2V19.4c-2.9-1.2-5-4.1-5-7.4
		c0-4.4,3.6-8,8-8s8,3.6,8,8C34,15.4,31.9,18.2,29,19.4z"/>
</g>
</svg>
