<?xml version="1.0" encoding="utf-8"?>
<!-- Generator: Adobe Illustrator 18.1.1, SVG Export Plug-In . SVG Version: 6.00 Build 0)  -->
<svg version="1.1" id="Layer_1" xmlns="http://www.w3.org/2000/svg" xmlns:xlink="http://www.w3.org/1999/xlink" x="0px" y="0px"
	 viewBox="0 0 52 52" enable-background="new 0 0 52 52" xml:space="preserve">
<rect id="bounds" fill-rule="evenodd" clip-rule="evenodd" fill="none" width="52" height="52"/>
<g id="volume">
	<path fill-rule="evenodd" clip-rule="evenodd" fill="#5DB8E6" d="M44.5,36l-18,10l-19-10l0,0V16l0,0l19-10l18,10l0,0V36L44.5,36z
		 M41.5,36l-14-7.5v14.9L41.5,36z M25.5,43.5V28.5l-15,7.5L25.5,43.5z M9.5,34.9l16-8.4v-1.1l-16-8.4V34.9z M25.5,23.5V8.5l-15,7.5
		L25.5,23.5z M27.5,8.5v14.9l14-7.5L27.5,8.5z M27.5,25.4v1.1l15,8.3V17.1L27.5,25.4z"/>
	<path fill-rule="evenodd" clip-rule="evenodd" fill="#C2C5CC" d="M43.5,19c-1.7,0-3-1.3-3-3c0-1.7,1.3-3,3-3s3,1.3,3,3
		C46.5,17.7,45.2,19,43.5,19z M26.5,48c-1.7,0-3-1.3-3-3s1.3-3,3-3c1.7,0,3,1.3,3,3S28.2,48,26.5,48z M26.5,28c-1.7,0-3-1.3-3-3
		c0-1.7,1.3-3,3-3c1.7,0,3,1.3,3,3C29.5,26.7,28.2,28,26.5,28z M26.5,10c-1.7,0-3-1.3-3-3s1.3-3,3-3c1.7,0,3,1.3,3,3
		S28.2,10,26.5,10z M8.5,39c-1.7,0-3-1.3-3-3c0-1.7,1.3-3,3-3s3,1.3,3,3C11.5,37.7,10.2,39,8.5,39z M8.5,19c-1.7,0-3-1.3-3-3
		c0-1.7,1.3-3,3-3s3,1.3,3,3C11.5,17.7,10.2,19,8.5,19z M43.5,33c1.7,0,3,1.3,3,3c0,1.7-1.3,3-3,3s-3-1.3-3-3
		C40.5,34.3,41.8,33,43.5,33z"/>
</g>
</svg>
